name Walk6.mot
datacolumns 19
datarows 30
range 0.93000000 1.07500000
endheader

                time	   L_ground_force_vx	   L_ground_force_vy	   L_ground_force_vz	   L_ground_force_px	   L_ground_force_py	   L_ground_force_pz	   R_ground_force_vx	   R_ground_force_vy	   R_ground_force_vz	   R_ground_force_px	   R_ground_force_py	   R_ground_force_pz	   L_ground_torque_x	   L_ground_torque_y	   L_ground_torque_z	   R_ground_torque_x	   R_ground_torque_y	   R_ground_torque_z	
          0.93000000	         -5.39411640	         90.42438497	         -8.33577738	         -0.07054204	          0.00000000	          0.00085070	         -0.00000000	          0.00000000	          0.00000000	         -0.00000000	          0.00000000	         -0.00000000	          0.00000000	          0.11110111	          0.00000000	          0.00000000	         -0.00000000	          0.00000000	
          0.93500000	         -9.54630061	        125.67331643	        -11.55995794	         -0.15736960	          0.00000000	          0.00006063	          0.00000000	         -0.00000000	          0.00000000	         -0.00000000	          0.00000000	         -0.00000000	          0.00000000	          0.18501455	          0.00000000	          0.00000000	         -0.00000000	          0.00000000	
          0.94000000	        -15.13689469	        162.91149215	        -14.74603090	         -0.23404568	          0.00000000	         -0.00062246	          0.00000000	         -0.00000000	         -0.00000000	         -0.00000000	          0.00000000	         -0.00000000	          0.00000000	          0.27937651	          0.00000000	          0.00000000	          0.00000000	          0.00000000	
          0.94500000	        -22.14498265	        200.22736496	        -17.67104092	         -0.29800605	          0.00000000	         -0.00120994	          0.00000000	         -0.00000001	         -0.00000000	         -0.00000000	          0.00000000	         -0.00000000	          0.00000000	          0.39320557	          0.00000000	          0.00000000	          0.00000000	          0.00000000	
          0.95000000	        -30.31515406	        236.24669375	        -20.13990791	         -0.34861860	          0.00000000	         -0.00172567	          0.00000000	         -0.00000002	         -0.00000000	         -0.00000000	          0.00000000	         -0.00000000	          0.00000000	          0.52272169	          0.00000000	          0.00000000	          0.00000000	          0.00000000	
          0.95500000	        -39.19016704	        270.20690103	        -22.01647910	         -0.38654164	          0.00000000	         -0.00219451	          0.00000000	         -0.00000003	         -0.00000000	         -0.00000000	          0.00000000	         -0.00000000	          0.00000000	          0.66161889	          0.00000000	          0.00000000	          0.00000000	          0.00000000	
          0.96000000	        -48.20523711	        301.72916074	        -23.22934356	         -0.41320709	          0.00000000	         -0.00264113	          0.00000001	         -0.00000004	         -0.00000000	         -0.00000000	          0.00000000	         -0.00000000	          0.00000000	          0.80232563	          0.00000000	          0.00000000	          0.00000000	          0.00000000	
          0.96500000	        -56.79650392	        330.72463069	        -23.76212139	         -0.43042412	          0.00000000	         -0.00308805	          0.00000001	         -0.00000005	         -0.00000000	         -0.00000000	          0.00000000	         -0.00000000	          0.00000000	          0.93741475	          0.00000000	          0.00000000	          0.00000000	          0.00000000	
          0.97000000	        -64.52311160	        357.29400983	        -23.63784178	         -0.44009449	          0.00000000	         -0.00355100	          0.00000001	         -0.00000006	         -0.00000000	         -0.00000000	          0.00000000	         -0.00000000	          0.00000000	          1.06091253	          0.00000000	          0.00000000	          0.00000000	          0.00000000	
          0.97500000	        -71.16068460	        381.61317215	        -22.89976082	         -0.44402260	          0.00000000	         -0.00404001	          0.00000001	         -0.00000007	         -0.00000000	         -0.00000000	          0.00000000	         -0.00000000	          0.00000000	          1.16940811	          0.00000000	          0.00000000	          0.00000000	          0.00000000	
          0.98000000	        -76.70751564	        403.86494522	        -21.59707159	         -0.44380186	          0.00000000	         -0.00456266	          0.00000001	         -0.00000008	         -0.00000000	         -0.00000000	          0.00000000	         -0.00000000	          0.00000000	          1.26230226	          0.00000000	          0.00000000	          0.00000000	          0.00000000	
          0.98500000	        -81.29760698	        424.21844756	        -19.77952659	         -0.44076468	          0.00000000	         -0.00512425	          0.00000002	         -0.00000009	         -0.00000000	         -0.00000000	          0.00000000	         -0.00000000	          0.00000000	          1.34111559	          0.00000000	          0.00000000	          0.00000000	          0.00000000	
          0.99000000	        -85.08932306	        442.82750932	        -17.49764004	         -0.43597706	          0.00000000	         -0.00572925	          0.00000002	         -0.00000009	         -0.00000000	         -0.00000000	          0.00000000	         -0.00000000	          0.00000000	          1.40820903	          0.00000000	          0.00000000	          0.00000000	          0.00000000	
          0.99500000	        -88.19854650	        459.81729254	        -14.80573243	         -0.43026145	          0.00000000	         -0.00637832	          0.00000001	         -0.00000007	         -0.00000000	          0.00000000	          0.00000000	          0.00000000	          0.00000000	          1.46634062	          0.00000000	          0.00000000	          0.00000000	          0.00000000	
          1.00000000	        -90.68845383	        475.24395221	        -11.76654666	         -0.42423216	          0.00000000	         -0.00706532	          0.00000001	         -0.00000004	         -0.00000000	          0.00000000	          0.00000000	          0.00000000	          0.00000000	          1.51835405	          0.00000000	          0.00000000	          0.00000000	          0.00000000	
          1.00500000	        -92.58353648	        489.08933909	         -8.45161965	         -0.41832754	          0.00000000	         -0.00777877	          0.00000000	          0.00000001	         -0.00000000	          0.00000000	          0.00000000	          0.00000000	          0.00000000	          1.56636981	          0.00000000	          0.00000000	          0.00000000	          0.00000000	
          1.01000000	        -93.88573848	        501.33165519	         -4.93319153	         -0.41283586	          0.00000000	         -0.00850450	         -0.00000001	          0.00000009	          0.00000000	          0.00000000	          0.00000000	          0.00000000	          0.00000000	          1.61157197	          0.00000000	          0.00000000	         -0.00000000	          0.00000000	
          1.01500000	        -94.59556334	        512.00788089	         -1.27808465	         -0.40792390	          0.00000000	         -0.00922745	         -0.00000003	          0.00000021	          0.00000000	          0.00000000	          0.00000000	          0.00000000	          0.00000000	          1.65440334	          0.00000000	          0.00000000	         -0.00000000	          0.00000000	
          1.02000000	        -94.72835788	        521.21170192	          2.44800320	         -0.40366658	          0.00000000	         -0.00993447	         -0.00000006	          0.00000037	          0.00000000	          0.00000000	          0.00000000	          0.00000000	          0.00000000	          1.69460273	          0.00000000	          0.00000000	         -0.00000000	          0.00000000	
          1.02500000	        -94.31517972	        529.06860856	          6.17571224	         -0.40007306	          0.00000000	         -0.01061471	         -0.00000009	          0.00000057	          0.00000000	          0.00000000	          0.00000000	          0.00000000	          0.00000000	          1.73139914	          0.00000000	          0.00000000	         -0.00000000	          0.00000000	
          1.03000000	        -93.39609919	        535.71854348	          9.83026791	         -0.39710922	          0.00000000	         -0.01125831	         -0.00000013	          0.00000081	          0.00000001	          0.00000000	          0.00000000	          0.00000000	          0.00000000	          1.76391858	          0.00000000	          0.00000000	         -0.00000000	          0.00000000	
          1.03500000	        -92.01603563	        541.30514853	         13.33060435	         -0.39471578	          0.00000000	         -0.01185550	         -0.00000018	          0.00000108	          0.00000001	          0.00000000	          0.00000000	          0.00000000	          0.00000000	          1.79143029	          0.00000000	          0.00000000	         -0.00000000	          0.00000000	
          1.04000000	        -90.22433327	        545.97086882	         16.59070743	         -0.39282142	          0.00000000	         -0.01239557	         -0.00000023	          0.00000138	          0.00000001	          0.00000000	          0.00000000	          0.00000000	          0.00000000	          1.81345787	          0.00000000	          0.00000000	         -0.00000000	          0.00000000	
          1.04500000	        -88.07514623	        549.85839170	         19.52468900	         -0.39135133	          0.00000000	         -0.01286822	         -0.00000028	          0.00000167	          0.00000002	          0.00000000	          0.00000000	          0.00000000	          0.00000000	          1.82952115	          0.00000000	          0.00000000	         -0.00000000	          0.00000000	
          1.05000000	        -85.62582891	        553.11757031	         22.05439301	         -0.39023255	          0.00000000	         -0.01326456	         -0.00000033	          0.00000192	          0.00000002	          0.00000000	          0.00000000	          0.00000000	          0.00000000	          1.83874750	          0.00000000	          0.00000000	         -0.00000000	          0.00000000	
          1.05500000	        -82.93435898	        555.90965563	         24.11542275	         -0.38939729	          0.00000000	         -0.01357832	         -0.00000036	          0.00000207	          0.00000002	          0.00000000	          0.00000000	          0.00000000	          0.00000000	          1.83970700	          0.00000000	          0.00000000	         -0.00000000	          0.00000000	
          1.06000000	        -80.05648060	        558.40407032	         25.66165588	         -0.38878476	          0.00000000	         -0.01380635	         -0.00000037	          0.00000205	          0.00000003	          0.00000000	          0.00000000	          0.00000000	          0.00000000	          1.83072071	          0.00000000	          0.00000000	         -0.00000000	          0.00000000	
          1.06500000	        -77.04206676	        560.76239647	         26.66898034	         -0.38834283	          0.00000000	         -0.01394758	         -0.00000033	          0.00000177	          0.00000003	         -0.00000000	          0.00000000	         -0.00000000	          0.00000000	          1.81021288	          0.00000000	          0.00000000	         -0.00000000	          0.00000000	
          1.07000000	        -73.93265585	        563.12049618	         27.13745627	         -0.38802739	          0.00000000	         -0.01400428	         -0.00000024	          0.00000111	          0.00000002	         -0.00000000	          0.00000000	         -0.00000000	          0.00000000	          1.77685344	          0.00000000	          0.00000000	         -0.00000000	          0.00000000	
          1.07500000	        -70.76281424	        565.57609219	         27.09147483	         -0.38780235	          0.00000000	         -0.01398278	         -0.00000006	         -0.00000005	          0.00000001	         -0.00000000	          0.00000000	         -0.00000000	          0.00000000	          1.72981619	          0.00000000	          0.00000000	         -0.00000000	          0.00000000	
